<svg width="47" height="47" viewBox="0 0 47 47" fill="none" xmlns="http://www.w3.org/2000/svg">
<path d="M32.2265 25.1669C34.5418 23.3553 36.2318 20.871 37.0613 18.0598C37.8908 15.2485 37.8186 12.25 36.8548 9.4814C35.8909 6.71282 34.0834 4.31185 31.6835 2.61252C29.2837 0.913188 26.411 0 23.465 0C20.519 0 17.6463 0.913188 15.2464 2.61252C12.8466 4.31185 11.039 6.71282 10.0752 9.4814C9.11133 12.25 9.03915 15.2485 9.86866 18.0598C10.6982 20.871 12.3881 23.3553 14.7034 25.1669C10.7361 26.7476 7.27449 29.3695 4.68761 32.7528C2.10072 36.1362 0.485534 40.1543 0.0142448 44.3788C-0.0198695 44.6873 0.00743522 44.9994 0.0945994 45.2973C0.181764 45.5952 0.32708 45.8732 0.522253 46.1152C0.916422 46.6041 1.48974 46.9173 2.11607 46.9858C2.74241 47.0543 3.37046 46.8726 3.86207 46.4806C4.35367 46.0886 4.66856 45.5184 4.73745 44.8955C5.25603 40.3044 7.45728 36.0642 10.9207 32.9851C14.384 29.9059 18.8667 28.2038 23.5122 28.2038C28.1577 28.2038 32.6404 29.9059 36.1038 32.9851C39.5671 36.0642 41.7684 40.3044 42.287 44.8955C42.3512 45.4726 42.6281 46.0056 43.0642 46.3917C43.5003 46.7777 44.0647 46.9893 44.6486 46.9858H44.9083C45.5274 46.915 46.0932 46.6037 46.4825 46.1198C46.8718 45.6358 47.053 45.0185 46.9865 44.4023C46.513 40.1658 44.8892 36.1374 42.289 32.7488C39.6888 29.3602 36.2103 26.7393 32.2265 25.1669ZM23.465 23.4994C21.5967 23.4994 19.7703 22.9484 18.2168 21.9161C16.6634 20.8838 15.4526 19.4166 14.7376 17.6999C14.0226 15.9833 13.8356 14.0944 14.2001 12.272C14.5646 10.4496 15.4642 8.77567 16.7853 7.46181C18.1065 6.14795 19.7896 5.25321 21.6221 4.89071C23.4545 4.52822 25.3539 4.71427 27.08 5.42532C28.8061 6.13637 30.2814 7.3405 31.3194 8.88543C32.3574 10.4304 32.9114 12.2467 32.9114 14.1048C32.9114 16.5964 31.9161 18.9859 30.1446 20.7478C28.3731 22.5096 25.9703 23.4994 23.465 23.4994Z" fill="white"/>
</svg>
