<svg width="24" height="26" viewBox="0 0 24 26" fill="none" xmlns="http://www.w3.org/2000/svg">
<path d="M9.63067 20.4043C9.97031 20.4043 10.296 20.2712 10.5362 20.0341C10.7763 19.797 10.9113 19.4755 10.9113 19.1403V11.5558C10.9113 11.2206 10.7763 10.8991 10.5362 10.662C10.296 10.4249 9.97031 10.2918 9.63067 10.2918C9.29104 10.2918 8.96531 10.4249 8.72515 10.662C8.485 10.8991 8.35008 11.2206 8.35008 11.5558V19.1403C8.35008 19.4755 8.485 19.797 8.72515 20.0341C8.96531 20.2712 9.29104 20.4043 9.63067 20.4043ZM22.4366 5.23548H17.3142V3.97141C17.3142 2.96566 16.9095 2.00109 16.189 1.28991C15.4685 0.578735 14.4914 0.179199 13.4725 0.179199H10.9113C9.89236 0.179199 8.91519 0.578735 8.19471 1.28991C7.47424 2.00109 7.06948 2.96566 7.06948 3.97141V5.23548H1.9471C1.60746 5.23548 1.28174 5.36866 1.04158 5.60572C0.801423 5.84278 0.666504 6.1643 0.666504 6.49956C0.666504 6.83481 0.801423 7.15633 1.04158 7.39339C1.28174 7.63045 1.60746 7.76363 1.9471 7.76363H3.22769V21.6684C3.22769 22.6742 3.63245 23.6387 4.35293 24.3499C5.0734 25.0611 6.05058 25.4606 7.06948 25.4606H17.3142C18.3331 25.4606 19.3103 25.0611 20.0308 24.3499C20.7513 23.6387 21.156 22.6742 21.156 21.6684V7.76363H22.4366C22.7763 7.76363 23.102 7.63045 23.3421 7.39339C23.5823 7.15633 23.7172 6.83481 23.7172 6.49956C23.7172 6.1643 23.5823 5.84278 23.3421 5.60572C23.102 5.36866 22.7763 5.23548 22.4366 5.23548ZM9.63067 3.97141C9.63067 3.63616 9.76559 3.31464 10.0057 3.07758C10.2459 2.84052 10.5716 2.70734 10.9113 2.70734H13.4725C13.8121 2.70734 14.1378 2.84052 14.378 3.07758C14.6181 3.31464 14.7531 3.63616 14.7531 3.97141V5.23548H9.63067V3.97141ZM18.5948 21.6684C18.5948 22.0037 18.4599 22.3252 18.2198 22.5622C17.9796 22.7993 17.6539 22.9325 17.3142 22.9325H7.06948C6.72985 22.9325 6.40412 22.7993 6.16396 22.5622C5.9238 22.3252 5.78888 22.0037 5.78888 21.6684V7.76363H18.5948V21.6684ZM14.7531 20.4043C15.0927 20.4043 15.4184 20.2712 15.6586 20.0341C15.8987 19.797 16.0336 19.4755 16.0336 19.1403V11.5558C16.0336 11.2206 15.8987 10.8991 15.6586 10.662C15.4184 10.4249 15.0927 10.2918 14.7531 10.2918C14.4134 10.2918 14.0877 10.4249 13.8475 10.662C13.6074 10.8991 13.4725 11.2206 13.4725 11.5558V19.1403C13.4725 19.4755 13.6074 19.797 13.8475 20.0341C14.0877 20.2712 14.4134 20.4043 14.7531 20.4043Z" fill="#F3F3F3"/>
</svg>
