<svg width="55" height="55" viewBox="0 0 55 55" fill="none" xmlns="http://www.w3.org/2000/svg">
<path d="M44.2812 42.2812H16.1818L9.31665 4.52282C9.23417 4.0692 8.9951 3.65891 8.64113 3.36349C8.28715 3.06807 7.84071 2.90625 7.37965 2.90625H2.9375M44.2812 42.2812C41.563 42.2812 39.3594 44.4848 39.3594 47.2031C39.3594 49.9214 41.563 52.125 44.2812 52.125C46.9995 52.125 49.2031 49.9214 49.2031 47.2031C49.2031 44.4848 46.9995 42.2812 44.2812 42.2812ZM14.392 32.4375H45.2906C46.2127 32.4375 47.1055 32.1139 47.8135 31.523C48.5215 30.9322 48.9996 30.1116 49.1646 29.2044L52.1562 12.75H10.8125M23.6094 47.2031C23.6094 49.9214 21.4058 52.125 18.6875 52.125C15.9692 52.125 13.7656 49.9214 13.7656 47.2031C13.7656 44.4848 15.9692 42.2812 18.6875 42.2812C21.4058 42.2812 23.6094 44.4848 23.6094 47.2031Z" stroke="white" stroke-width="4" stroke-linecap="round" stroke-linejoin="round"/>
</svg>
