<svg width="54" height="54" viewBox="0 0 54 54" fill="none" xmlns="http://www.w3.org/2000/svg">
<path d="M52.7919 8.89601C52.6059 8.52401 52.2959 8.21401 51.8619 8.15201C51.4279 8.09001 51.0559 8.21401 50.7459 8.46201L45.7239 13.484C45.0419 14.166 44.1119 14.6 43.1199 14.6C42.1279 14.6 41.1979 14.228 40.5159 13.484C39.0899 12.058 39.0899 9.70201 40.5159 8.21401L45.5379 3.19201C45.8479 2.88201 45.9719 2.51001 45.8479 2.07601C45.7239 1.64201 45.4759 1.33201 45.1039 1.14601C39.7719 -1.08599 33.6339 0.154013 29.5419 4.24601C25.6359 8.15201 24.3339 13.856 26.1319 19.002L1.95193 43.306C-0.466072 45.724 -0.466072 49.63 1.95193 52.048C3.12993 53.226 4.74193 53.846 6.35393 53.846C7.96593 53.846 9.51593 53.226 10.7559 52.048L34.9979 27.806C40.1439 29.604 45.8479 28.302 49.7539 24.396C53.7839 20.366 55.0239 14.228 52.7919 8.89601ZM47.9559 22.722C44.5459 26.132 39.5239 27.124 35.1219 25.264C34.6879 25.078 34.1299 25.202 33.7579 25.512L8.95793 50.312C7.53193 51.738 5.17593 51.738 3.68793 50.312C2.19993 48.886 2.26193 46.53 3.68793 45.042L28.4879 20.242C28.8599 19.87 28.9219 19.374 28.7359 18.878C26.8759 14.476 27.8679 9.39201 31.2779 6.04401C33.5099 3.81201 36.5479 2.57201 39.5859 2.57201C40.5159 2.57201 41.3839 2.69601 42.3139 2.88201L38.7799 6.47801C36.3619 8.89601 36.3619 12.802 38.7799 15.22C39.9579 16.398 41.5079 17.018 43.1819 17.018C44.8559 17.018 46.4059 16.398 47.5839 15.22L51.1799 11.624C52.0479 15.592 50.8699 19.746 47.9559 22.722Z" fill="white"/>
</svg>
