<svg width="30" height="30" viewBox="0 0 30 30" fill="none" xmlns="http://www.w3.org/2000/svg">
<path d="M22.65 29.1667C16.8661 29.1592 11.3213 26.8582 7.23155 22.7684C3.14175 18.6786 0.84081 13.1338 0.833313 7.35C0.833313 5.62168 1.51989 3.96414 2.742 2.74203C3.96411 1.51991 5.62165 0.833338 7.34998 0.833338C7.71596 0.83055 8.08133 0.863765 8.44081 0.932504C8.78834 0.98393 9.12997 1.06934 9.46081 1.1875C9.6935 1.26915 9.90084 1.41011 10.0623 1.59646C10.2238 1.7828 10.3339 2.00808 10.3816 2.25L12.3225 10.75C12.3748 10.9807 12.3685 11.2209 12.3042 11.4485C12.2398 11.6762 12.1195 11.8841 11.9541 12.0533C11.77 12.2517 11.7558 12.2658 10.0133 13.1725C11.4087 16.2337 13.857 18.6921 16.9125 20.1C17.8333 18.3433 17.8475 18.3292 18.0458 18.145C18.215 17.9797 18.4229 17.8593 18.6506 17.795C18.8783 17.7307 19.1184 17.7244 19.3491 17.7767L27.8491 19.7175C28.0833 19.7718 28.2998 19.8849 28.4783 20.046C28.6567 20.2071 28.7912 20.4109 28.8691 20.6383C28.9887 20.9746 29.0788 21.3206 29.1383 21.6725C29.1953 22.0285 29.2238 22.3886 29.2233 22.7492C29.1972 24.4701 28.4913 26.1108 27.2598 27.3132C26.0282 28.5155 24.371 29.1818 22.65 29.1667Z" fill="black"/>
</svg>
