<svg width="25" height="35" viewBox="0 0 25 35" fill="none" xmlns="http://www.w3.org/2000/svg">
<path d="M12.5 0C5.58929 0 0 5.6266 0 12.5835C0 20.0796 7.89286 30.416 11.1429 34.3528C11.8571 35.2157 13.1607 35.2157 13.875 34.3528C17.1071 30.416 25 20.0796 25 12.5835C25 5.6266 19.4107 0 12.5 0ZM12.5 17.0776C10.0357 17.0776 8.03571 15.0642 8.03571 12.5835C8.03571 10.1027 10.0357 8.08937 12.5 8.08937C14.9643 8.08937 16.9643 10.1027 16.9643 12.5835C16.9643 15.0642 14.9643 17.0776 12.5 17.0776Z" fill="black"/>
</svg>
